<svg width="21" height="20" viewBox="0 0 21 20" fill="none" xmlns="http://www.w3.org/2000/svg">
<path d="M19.9565 8.15401C20.0795 8.81301 20.1465 9.50201 20.1465 10.221C20.1465 15.845 16.3825 19.844 10.6975 19.844C9.40467 19.8444 8.12442 19.59 6.92991 19.0955C5.73541 18.6009 4.65006 17.8758 3.73588 16.9616C2.8217 16.0475 2.09661 14.9621 1.60204 13.7676C1.10748 12.5731 0.853122 11.2929 0.853516 10C0.853122 8.70716 1.10748 7.42691 1.60204 6.2324C2.09661 5.0379 2.8217 3.95255 3.73588 3.03837C4.65006 2.12419 5.73541 1.3991 6.92991 0.904533C8.12442 0.409966 9.40467 0.155612 10.6975 0.156006C13.3555 0.156006 15.5765 1.13401 17.2805 2.72201L14.5055 5.49701V5.49001C13.4725 4.50601 12.1615 4.00101 10.6975 4.00101C7.44952 4.00101 4.80952 6.74501 4.80952 9.99401C4.80952 13.242 7.44952 15.992 10.6975 15.992C13.6445 15.992 15.6505 14.307 16.0625 11.993H10.6975V8.15401H19.9575H19.9565Z" fill="#FEFEFE"/>
</svg>
